<?xml version='1.0' encoding='utf-8'?>
<svg xmlns="http://www.w3.org/2000/svg" width="54.1662mm" height="71.8423mm" version="1.1" style="shape-rendering:geometricPrecision; text-rendering:geometricPrecision; image-rendering:optimizeQuality; fill-rule:evenodd; clip-rule:evenodd" viewBox="0 0 7966.27 10565.91"> <defs> <style type="text/css">  .str0 {stroke:black;stroke-width:62.26;stroke-miterlimit:22.9256} .str1 {stroke:#201E1E;stroke-width:24.9;stroke-miterlimit:22.9256} .fil1 {fill:none} .fil2 {fill:#FEFEFE} .fil0 {fill:#201E1E}  </style> </defs> <g id="Capa_x0020_1"> <metadata id="CorelCorpID_0Corel-Layer"/> <path class="fil0" d="M2995.16 6468.09c24.75,54.67 82.05,91.95 163.31,90.43 88.76,-1.68 124.89,-46.31 158.28,-106.3 53.12,11.74 128.19,51.03 185.63,69.54 60.64,19.55 144.11,24.47 191.25,58.4 -85.79,503.95 -810.83,566.43 -853.58,-15.84 -11.57,-157.56 72.36,-339.7 208.55,-347.45 23.5,59.17 34.55,71.89 12.71,141.48 -18.69,59.58 -43.02,64.51 -66.14,109.74zm1910.42 -202.12c36,-226.3 55.98,-206 68.74,-270.57 23.99,-121.23 -0.03,-214.02 97.77,-440.82 82.2,-190.62 342.85,-333.53 515.76,-381.72 8.43,197.77 -84.24,425.68 -169,592.2 -37.61,73.87 -31.55,90.01 -118.54,123.95 -13.35,45.44 -8.46,-17.99 7.65,15.96 0.16,0.35 17.09,7.85 2.91,35.46 -14.3,27.86 -30.37,30.33 -48.31,67.05 -17.65,-24.94 -10.13,-6.77 -19.33,-46.33 -1.93,22.53 -0.24,21.27 -7.96,42.87 -32.22,90.27 -268.67,245.7 -329.7,261.95zm-2072.88 -604.67c-85.04,-158.76 -198.34,-478.35 -230.4,-660.76 51.05,6.62 324.92,140.6 387.4,168.28 119,52.72 265.3,125.44 356.94,202.12 155.63,130.23 271.61,328.54 319.97,514.41l19.75 59.3c47.15,132.04 22.34,123.72 -18.66,137.42l18.97 9.4c44.59,26.91 28.99,12.46 35.65,41.21l-3.26 273.77c-107.49,-12.07 -251.23,-74.3 -322.82,-125.14 23.62,-73.37 192.1,-175.62 42.25,-404.03 -19.69,-30.03 -23.62,-29.12 -36.16,-62.15 -28.71,-75.58 -156.31,-156.13 -254.58,-182.79 -156.41,-42.46 -199.58,20.81 -315.04,28.97zm1446.56 -3785.97c303.82,-36.41 574.84,-35.78 861.84,48.2 126.3,36.96 228.42,77.42 340.41,129.45 63.86,29.66 93.36,50 99.86,132.88 6.21,78.92 -18.37,132.44 -56.92,175.5 -44.55,-20.55 -90.67,-56.31 -136.63,-78.87 -386.37,-189.66 -783.64,-233.98 -1199.97,-102.85 -158.44,49.9 -916.27,-184.99 -1377.94,205.15l-53.27 -70.95c-13.49,-26.49 -23.59,-59.67 -25.66,-91.73 -25.4,-393.24 1047.51,-335.66 1257.75,-330.57 19.53,100.83 39.36,205.66 153.09,197.99 117.22,-7.91 125.76,-108.83 137.44,-214.19zm-2604.68 2770.02c-14.05,18.46 27.06,21.93 -35.02,10.53l77.76 54.45c210.25,111.89 293.48,163.29 451.2,350.68 -25.53,67.46 -92.26,141.81 -129.53,213.56 -36.4,70.11 -63.39,155.79 -100.71,220.75 -41.37,-60.64 -89.8,-335.07 -178.51,-359.79 -60.67,-16.9 -73.2,32.75 -95.42,72.2 -39.74,-58.67 -31.43,-86.43 -90.8,-132 -64.09,-49.17 -59.68,-24.28 -115.22,-94.85 -54.67,-69.46 -140.47,-158.76 -260.11,-185.54l42.72 42.97c75.58,52.99 176.01,114.49 223.77,210.25 -71.59,49.87 -66.43,71.83 -80.64,165.28 -13.88,-41.08 -76.95,-66.11 -151.13,-58.28 -64.73,110.16 -68.4,129.51 -57.65,279.73 5.47,76.49 19.58,229.64 48.81,284.92 17.28,-128.44 -56.92,-461.17 45.61,-517.48 33.87,-18.59 74.67,7.03 92.04,23.52 36.94,35.03 31.5,151.66 44.56,256.15l18.18 92.32c13.41,28.25 5.07,13.4 22.24,32.12 14.52,-150.92 -33.41,-418.33 56.31,-516.94 70.24,1.81 124.3,85.51 140.13,164.09 11.62,57.71 -7.25,203.49 0.68,290.71 44,-80.11 -1.47,-320.01 95.21,-368.56 69.34,48.12 118.23,288.23 146.64,398.31 18.97,73.52 45.44,137.63 63.23,210.03 40.22,163.85 4.09,84.99 -24.34,191.6 45.58,-15.18 70.23,-47.08 115.63,-78.33 49.18,-33.86 412.68,-296.79 380.72,-118.58 -2.1,11.69 -14.93,31.78 -22.37,41.22 -37.68,47.77 -131.78,114.58 -171.65,176.34 -22.06,34.15 -116.69,310.11 -127.75,355.6 12.32,-8.46 18.81,4.6 25.88,-18.68 1.1,1.99 16.32,29.96 17.02,30.78 23.6,27.86 -20.28,-2.26 25.16,19.55 -8.91,-92.8 69.04,-304.27 110.85,-373.77 59.7,-99.24 219.05,-145.48 188,-294.38 -62.93,-50.53 -182.99,-24.87 -254.29,4.22 -41.4,16.88 -69.55,32.37 -103.95,58.17 -31.61,23.71 -60.59,59.67 -94.36,79.09 -50.08,-209.74 -19.6,-310.42 109.82,-536.93 137.92,-241.39 216.43,-282.3 308.92,-422.12 52.34,12.53 51.65,28.36 103.52,52.24 23.52,147.42 30.91,268.21 63.83,421.08 21.94,101.92 104.88,307.48 108.85,374.28 -204.18,172.9 -371.53,330.2 -411.55,645.45 -20.87,164.35 7.78,310.64 7.78,310.66 1.15,3.46 3.25,7.79 4.25,10.59 1.01,2.82 2.63,7.25 4.56,10.56 1.44,-15.66 2.01,-41.06 3.69,-53.42 4.37,-32.11 0.4,-13.56 7.13,-27.16 1.6,2.65 2.88,6.62 3.46,8.62l7.46 78.15c23.06,-6.69 16.41,1.81 38.9,-36.12 2.44,4.82 14.74,20.03 16.15,21.47 40.49,41.43 -7.91,13.16 33.28,62.65 -14.49,-250.29 -45.5,-391.74 84.54,-636.13 14.87,-27.96 29.34,-47.86 46.03,-77.57l35.69 -55.48c60.06,-57.45 -54.58,34.52 27.28,-20.22l0.84 123.83c-21.93,-82.21 5.85,-173.46 62.59,-208.56l169.68 -4.66 -64.89 -27.13c-17.77,-2.47 -48.97,-0.87 -68.06,-0.96 0.5,-0.22 122.55,-96.21 181.94,-123 71.48,-32.21 173.62,-65.61 264.54,-43.86 53.67,12.84 68.54,26.49 103.01,59.73 2.1,2.03 4.43,4.87 6.59,6.84l14.46 12.25c133.94,100.79 85.32,172.82 100.89,331.06 2.38,-50.52 -9.72,-86.4 23.56,-126.08 4.88,76.46 7.09,137.89 -19.52,203.3 -25.88,63.62 -77.71,77.42 -96.9,114.48 -24.22,46.8 5.19,234.34 -236.25,158.78 7.5,-24.18 1.26,-7.02 18.25,-27.34 8.87,-10.63 17,-16.6 29.06,-32.09 12.18,-15.63 38.27,-57.58 44.46,-81.17 10.54,-40.17 8.31,-67.68 -12.13,-97.04 -36.93,-53.06 -32.49,15.72 -34.12,-89.92 -35.91,64.42 -44.42,-1.49 -161.5,28.69 -381.38,98.3 -332.53,905.87 214.81,916.27 415.67,7.88 665.17,-328.92 681.66,-700.1 10.54,-237.56 -6.68,-172.75 -26.87,-311.92 -0.13,-0.91 -1.62,-47.05 -1.18,-48.08 0.76,-1.85 2.65,-4.9 3.77,-6.57 1.22,-1.82 4.07,-4.43 5.57,-6.06l24.94 -17.3c-51.59,-22.81 -45.46,-8.32 -60.64,-71.12 31.11,-45.4 -47.09,28.87 22.37,-16.63l40.39 -24.93 -77.9 -8.96c-327.31,-1101.28 -1654.86,-554.74 -1536.24,-1979.44 45.21,-543.09 371.3,-1196.58 729.24,-1477.33 95.98,-75.29 132.95,-134.38 294.95,-149.72 330.28,-31.28 514.57,-12.62 824.41,44.67 75.45,13.96 195.93,-46.99 353.96,-76.57 246.81,-46.21 545.37,-41.24 788.29,31.4 133.32,39.87 370.13,303.85 456.38,424.65 191.53,268.29 349.59,604.55 399.64,943.05 42.14,284.94 40.64,538.54 -26.11,804.02 -131.95,524.94 -593.25,621.11 -897.25,870.23 -197.66,162 -244.98,316.91 -327.1,590.59 25.24,-7.29 43.09,-6.79 0.72,-12.32l-40.02 150.75c-16.8,45.77 -16.38,29.78 -20.41,38 -0.85,1.75 -2.93,4.78 -3.62,6.57 -0.69,1.76 -2.03,5.1 -2.53,6.97l-6.46 75.09c-56.68,235.83 -174.84,612.48 -277.21,820.95 -66.45,135.29 -97.24,159.41 -166.16,257.27 -24.52,34.83 -10.66,11.47 -26.37,44.94l65.4 51.64c19.5,-17.35 33.43,-38.14 54.18,-35.24 83.92,-46.86 182.79,-215.8 240.68,-313.19 79.62,-133.97 104.88,-243.4 162.79,-383.85 23.87,-57.93 104.08,-88.54 150.85,-123.8 123.57,-93.17 261.17,-215.09 342.5,-342.01 32.71,-51.02 26.31,-37.55 105.3,-34.96 -56.95,-64.81 -11.91,6.87 -45.46,-44.87 67.43,-85.05 45.77,-115.76 91.58,-122.64 18.35,-2.75 2.34,7.93 17.44,-1.88 -23,-51.3 70.62,-212.3 112.85,-361.69 101.11,-357.74 -72.02,-342.04 258.65,-530.93l17.37 17.8c279.88,268.64 315.2,1093.27 -281.23,887.28 1.03,-193.9 16.05,-173.07 -56.96,-184.02 39.47,35.97 85.54,10.77 49.21,233.3 -13.91,85.26 -34.33,53.64 -38.58,149.88 19.43,31.74 -22.96,8.63 63.78,33.02 132.22,37.15 14.1,-10.96 -49.52,41.75 0,7.74 -0.72,31.91 0.74,38.31 11.24,49.21 1.4,21.85 20.37,48.8l-2.65 -74.65 304.2 26.28c102.58,11 227.68,16.55 326.42,23.6 62.93,4.49 593.99,20.22 655.61,-30.66l-196.1 8.77c15.65,-11.77 35.3,-24.75 49.31,-38.02 -1003.86,46.68 -119.01,-415.83 -1.74,-446.67l17.52 -7.04c-92.77,-94.6 -38.33,-253.21 -12.15,-366.74 28.22,-122.39 78.65,-251.74 95.95,-360.87l-29.61 -7.38c-627.68,1090.97 -760.74,-94.52 -659.3,-300.85 217.18,-441.7 50.68,-1332.9 -172.5,-1784.25 -49.84,-100.79 -103.24,-179.15 -162.79,-260.96 -29.97,-41.19 -61.84,-81.17 -90.68,-121.66 -33.3,-46.74 -62.56,-80.26 -90.11,-118.95 35.59,-66.52 84.55,-101.04 92.77,-211.21 8.1,-108.42 -34.44,-155.13 -65.84,-224.62 65.71,-50.8 94.21,-49.18 108.29,-150.34 28.55,-205.27 -155.85,-367.56 -338.66,-448.39 -167.56,-74.08 -415.92,-143.98 -546.25,-237.08l-126.48 -128c-16.75,46.44 54.56,132.36 85.14,170.03 17.18,21.18 19.49,29.38 36.56,51.08 144.97,184.29 543.29,213.61 674.6,360.15 15.74,17.56 19.99,21.21 36.14,41.34 -56.53,11.97 -73.95,2.68 -118.35,42.36 7.68,6.49 2.54,4.25 23.52,13.27 29.25,12.57 135.69,32.69 148.81,49 24.05,76.86 15.52,116.72 -25.43,173.28 -203.21,-16.63 -536.07,-256.11 -1307.46,-82.33 -35.4,-42.34 -46.95,-129.13 -137.38,-130.29 -75.05,-0.94 -119.27,63.03 -136.98,126.89 -234.36,-5.63 -331.06,-65.9 -672.14,-28.16 -287.36,31.78 -326.7,62.65 -572.65,145.57 -37.93,-39.8 -74.05,-70.26 -71.37,-142.41 11.49,-308.58 259.62,-76.74 395.14,-71.89 -19.88,-63.98 -49.86,-72.86 -105.92,-110.13 -50.72,-33.71 -94.73,-44.92 -148.64,-61.12 27.9,-7.54 63.09,-42.8 100.01,-59.49 37.81,-17.09 77.84,-28.86 116.54,-43.52 226.25,-85.74 287.76,-92.01 435.52,-240.45 1.84,-1.84 4.54,-4.34 6.29,-6.25 1.75,-1.93 4.21,-4.65 5.87,-6.68l24.58 -38.41c30.56,-51.3 73.54,-108.11 65.71,-154.48 -2.68,23.85 -94.71,113.23 -123.79,133.29 -134.47,92.71 -392.86,161.7 -546.9,236.81 -116.91,56.99 -226.12,114.04 -289.11,236.95 -29.47,57.5 -57.33,130.05 -48.93,207.78 9.43,87.05 49.64,115.49 109.8,151.62 -32.64,85.45 -84.87,134.45 -62.83,259.89 19.47,110.8 84.68,148.88 104.71,200.84l-179.76 223.52c-59.21,81.26 -104.79,160.69 -154.38,256.7 -92.85,179.72 -170.98,380.35 -214.96,604.96 -58.31,297.73 -100.46,801.01 34.44,1094.43 59.24,128.88 131.42,146.56 190.93,223.62 -21.27,39.77 -12.77,20.99 -58.73,45.52 -63.58,33.93 -104.76,81.93 -157,127.11 -79.67,-109.57 -77.62,-148.92 -209.28,-249.51 -60.87,-46.49 -224.34,-125.51 -303.47,-152z"/> <path class="fil1 str0" d="M534.21 5225.97c-184.99,48.33 -321.86,-279.6 -90.45,-267.57 74.34,3.87 203.19,61.3 186.31,123.72 -10.52,38.93 -101.26,76.26 -196.49,-22.97l-28.16 89.48c59.43,-16.56 26.19,-30.97 85.42,2.54 55.09,31.16 49.99,7.07 43.37,74.8zm-183.91 -421.31c-18.34,-134.64 106.99,-156.48 226.59,-143.69 257.61,27.55 127.01,106.36 205,163.45l-84.01 640.49c-15.88,117.32 -57.7,113.33 -147.7,73.9l12.85 -353.54c55.31,-23.24 56.67,-3.94 86.32,-56.9 68.45,-122.25 13.31,-171.01 -130.8,-206.81 -111.72,-27.75 -116.26,-3.41 -192.53,23.8 -19.47,-110.52 95.8,-128.39 192.68,-126.17 150.19,3.46 190.21,37.18 187.24,154.42 117.97,-147.78 -168.98,-239.11 -355.63,-168.96zm317.69 -1326.49l37.43 26.34c-2.63,1.93 -6.75,3.41 -8.82,4.22l-38.55 12.49c-20.47,4.77 -29.63,5.43 -50.5,9.07l62.68 24.03 -36.97 16.66c-65.4,25.34 14.96,-11.93 -25.71,8.24 17.21,49.03 2.13,-1.41 37.36,49.81 -2.51,1.62 -6.84,2.44 -8.5,2.96l-77.98 32.43c66.68,35.89 46.21,-22.65 85.54,5.12 9.37,6.62 5.49,11.84 12.44,21.75 -24.71,62.17 -49.33,-21.46 -50.12,74.71 0.81,0.46 7.82,30.44 75.15,-0.56l1.12 74.9c-4.44,-69.04 5.71,-15.78 -28.59,-29.83 0.72,96.65 -27.69,192.68 -25.69,279.8 2.74,119.44 71.64,37.19 37.11,233.18 -76.71,20.28 -242.55,89.65 -268.21,143.51 -13.96,29.27 -4.1,20.94 -11.8,47.61l-10.35 27.22c-1.44,2.47 -3.72,5.28 -5.35,7.6 -23.18,32.96 -26.44,0.87 -39.37,64.68 -8.96,44.17 7.62,21.24 -18.4,78.89 -33.69,74.68 -14.46,80.86 -36.02,175.19 -23.33,102.04 31.05,61.81 20.41,147.19 -19.09,153.25 33.22,232.02 233.96,270.13l-9.04 296.38c91.52,38.71 114.66,41.81 182.04,-5.75l32.47 -237.61 144.16 -2.94c85.71,85.46 71.9,6.03 101.83,158.53 17.44,88.87 45.68,123.63 67.27,194.06 40.06,130.7 49.93,313.13 73.64,450.07 63.21,365.15 182.09,436.33 192.72,464.01 16.57,43.19 -22.06,31.65 5.97,94.92 18.65,42.12 44.37,29.81 76.18,50.21 19.75,12.66 37.4,49.71 54.45,69.39 108.14,17.4 97.32,-18.09 199.22,36.19 -151.29,77.95 -270.98,270.15 -364.49,470.17 22.16,18.91 13.5,5.71 26.8,30.31 5.16,9.53 7.34,22.75 9.1,33.3 49.3,-38.09 90.79,-262.24 372.25,-402.21 156.35,-77.76 466.21,-153.35 653.89,-55.74 7.68,12.96 66.55,164.07 69.27,179.81 7.47,43.22 -76.39,226.75 -87.58,420.61 -2.91,50.43 -9.65,188.69 24.27,232.21 18.66,-23.06 17.59,-12.87 12.1,-54.14 1.44,38.28 3.9,29.74 8.21,59.67l24.03 77.64c39.16,-15.03 30.69,-37.9 62.26,-47.34l8.49 29.97c17.31,37.93 29.05,35.06 40.34,41.09 33.99,18.16 -20.55,-48.78 10.85,10.6l21.47 77.04 32.3 -36.12c-46.42,-237.62 -101.61,-304.22 -40.28,-579.93 77.27,46.46 289.63,384.21 960.67,361.79 280.45,-9.37 643.82,-129.29 832.16,-314.16 30.88,-30.31 66.24,-54.7 80.9,-87.68 -20.75,-2.9 -34.68,17.88 -54.18,35.24l-65.4 -51.64c-27.9,19.27 -56.9,57.96 -89.55,87.8 -104.71,95.74 -224.64,173.35 -366.59,219.09 -213.15,68.68 -456.46,65.65 -687.88,12.09 -395.15,-91.46 -634.29,-414.67 -721.01,-825.13 -41.19,-49.49 7.21,-21.22 -33.28,-62.65 -1.41,-1.44 -13.71,-16.65 -16.15,-21.47 -22.49,37.93 -15.84,29.43 -38.9,36.12l-7.46 -78.15c-0.57,-2 -1.85,-5.97 -3.46,-8.62 -6.74,13.6 -2.76,-4.94 -7.13,27.16 -1.68,12.35 -2.25,37.75 -3.69,53.42l-0.01 59.45c-139.47,-22.19 -94.95,-50.46 -345.03,-48.67 21.85,-91.55 4.32,-68.42 77.18,-84.57 62.52,-13.85 55.18,-17.69 77.96,-71.55 30.74,-72.64 44.55,-32.81 65.27,-82.46 16.02,-38.4 -6.07,-80.79 -21.6,-111.35 -45.44,-21.81 -1.56,8.31 -25.16,-19.55 -0.69,-0.82 -15.91,-28.8 -17.02,-30.78 -7.07,23.28 -13.56,10.22 -25.88,18.68 -101.85,159.13 -130.08,262.93 -313.08,323.82 -504.19,167.78 -784.62,-581.22 -458.71,-881.13 83.83,-77.12 150,-65.26 226.89,-111.41 -86.4,-45.99 -210.47,31.71 -258.71,79.52 -71.17,70.54 -98.57,111.99 -142.07,218.68 -20.21,-31.58 -152.48,-448.77 -23.34,-583.65l28.86 -30c-150.1,-5.91 -104.36,113.41 -125.1,233.53 7.34,-61.2 -41.15,-121.45 -22.38,-222.96l-82.05 -39.69c3.28,-3.63 7.69,-8.69 8.94,-6.34l48.45 -31.93c1.87,-1.4 5.59,-3.97 7.9,-6.49 -96.35,-1.54 -143.34,20.9 -246.58,-3.87 -5.87,-75.51 50.59,-475.32 67.95,-568.31 21.78,-116.77 35.62,-186.62 -70.68,-224.06 -113.27,-39.92 -200.35,-6.59 -302.97,15.6 34.84,-108.13 262.9,-224.89 361.13,-123.22 27.34,28.3 19.28,18.87 38.69,47.33 71.81,105.27 201.65,270.99 307.78,332.72 -20.43,-48.43 -160.91,-203.47 -187.03,-228.33 -102.68,-97.64 -104.49,-127.29 -78.89,-315.42 54.7,-31.59 114.73,10.93 136.25,-107.98 13.99,-77.3 0.32,-169.09 32.8,-229.9 3.69,205.36 66.23,386 170.21,504.69 52.05,59.4 321.41,250.54 416.17,262.35 62.08,11.4 20.97,7.93 35.02,-10.53 -230.75,-125.47 -559.85,-438.67 -528.78,-711.59l95.17 45.49c43.94,-49.43 64.62,-152.35 71.84,-239.02 23.33,-279.52 -44.03,-181.93 -54.36,-209.34 -1.21,-3.19 -6.03,-0.31 -8.75,-1.49 57.84,-307.67 63.33,-469.99 -78.93,-738.24 -80.59,-151.97 -176.56,-261.01 -320.97,-353.51 -33.18,-21.25 -98.77,-52.97 -131.32,-77.61 315.64,-113.83 489.19,-216.08 908.44,-186.13 163.87,11.71 313.06,41.08 456.83,90.96 148.57,51.55 258.23,117.24 373.96,164.85 -424.98,-263.24 -952.17,-479.13 -1505.73,-288.3 -129.8,44.75 -356.63,166.95 -408.83,244.31 194.31,87.96 380.3,237.46 488.51,417.99 129.1,215.36 129.08,642.98 59.87,767.78 -7.72,-12.24 -6.59,-5.34 -11.34,-31.31 -6.72,-36.72 -1.07,16 -2.07,-22.68 -0.32,-12.4 4.9,-42.21 6.69,-54.92 4.87,-34.74 13.16,-87.17 14.09,-120.95 2.51,-90.51 -36.33,-108.35 -113.83,-126.73 27.15,-14.47 103.91,-101.41 100.99,-158.26 -3.9,-76.37 -105.41,-248.56 -211.02,-129.44 -109.45,123.47 -93.82,101.85 -16.74,279.43 -75.36,-1.71 -120.35,4.94 -138.94,76.42 -10.62,40.84 -19.16,139.88 -20.49,186.79l-30.91 8.29z"/> <path class="fil0" d="M7173.21 7637.43c-22.85,19.3 -24.09,-45.3 -23.03,47.92l-22.77 -49.03c0.04,34.78 -4.54,56 -6.35,83.85 -6.59,101.61 -2.47,-4.85 12.94,62.3 21.77,94.86 -47.89,9.21 -20.74,121.3 -20.12,-34.53 -1.44,-96.26 -20.16,-150.26 0.18,31.96 3.1,80.15 0.68,110.52l-26.18 76.29c-53.42,529.65 -533.78,995.11 -988.46,1210.83 -412.64,195.77 -1415.62,295.51 -1526.36,-392.49l224.56 -33.65c21.68,29.9 31.34,66.31 47.99,97.88 48.03,91.01 144.22,210.75 270.88,193.66 -140.01,-66.48 -227.55,-128.6 -256.15,-307.86 159.23,-33.64 295.99,-91.04 402.69,-181.26 65.95,-55.75 253.09,-257.99 264.14,-326.26 -21.18,-10.16 -46.05,15.63 -64.55,21.03l-16.72 -27.5c-65.36,32.62 -141.17,233.27 -623.35,415.34 -669.08,252.65 -1498.83,145.57 -2017.71,-373.07 -109.1,-109.05 -127.98,-185.47 -209.84,-317.11l-32.3 36.12 -21.47 -77.04c-31.4,-59.39 23.13,7.56 -10.85,-10.6 -11.3,-6.03 -23.03,-3.16 -40.34,-41.09l-8.49 -29.97c-31.56,9.44 -23.09,32.31 -62.26,47.34l-24.03 -77.64c-4.31,-29.93 -6.77,-21.38 -8.21,-59.67 5.49,41.27 6.56,31.08 -12.1,54.14 -14.62,174.94 162.69,410.65 184.54,474.83 -108.3,57.49 -290.77,23.75 -418.2,22.55l55.42 39.22c68.33,32.64 170.9,53.31 247.12,56.17 237.43,8.9 137.76,-65.96 300.07,68.31 129.8,107.41 341.65,207.96 533.66,251.4 16.35,113.14 32.05,85.98 59.34,153.2 11.96,29.41 8.59,60.55 17.18,92.71 14.05,52.68 19.25,52.06 52.89,67.23 -14.47,-47.96 -33.59,-80.18 -12.27,-119.6l19.55 -20.65c-53.33,-27.15 -52.86,-68.74 -56.17,-145.97l155.51 28.41 27.65 116.35c8.72,41.33 19.87,78.27 33.55,114.16 24.02,63.03 70.15,154.13 131.76,177.68 -67.05,-142.47 -123.07,-182.47 -119.29,-392.55 249.4,12.49 446.27,40.33 712.28,34.89 1.87,3 3.79,4.43 4.56,9.57l26.94 51.37c20.37,23.3 30.66,21.75 70.89,27.83 -72.98,148.84 -21.43,114.35 58.52,164.65 -38.75,102.02 -17.91,128.44 92.46,116.94l10.74 80.01c-271.64,100.16 -601.31,13.9 -683.47,27.87 -80.58,13.69 -175.19,39.61 -277.08,-41.17 -44.84,-35.55 -1.04,-28.84 -49.3,-59.8 -130.91,-83.99 -26.52,-127.55 -134.73,-159.95 10.9,49.71 23.24,104.13 54.92,139.16 29.22,32.33 20.12,17.55 62.09,38.14 59.12,29.02 15.49,5.03 57.87,53.56 98.92,113.3 179.72,60.2 321.92,54.14 73.74,269.3 26,380.1 -192.46,482.14 -558.69,260.93 -1180.85,17.31 -1606.29,-354.46l-188.56 -172.26c-64.24,-61.58 -113.7,-113.57 -173.69,-187.12 -282.23,-345.95 -465.2,-893.44 -457.23,-1349.61 2.01,-114.74 46.59,-245.73 45.19,-314.03 -1.76,-10.54 -3.94,-23.77 -9.1,-33.3 -13.3,-24.6 -4.63,-11.4 -26.8,-30.31 -113.69,406.97 -105.63,651.83 14.19,1063.62 158.57,544.94 599.96,1123 1108.03,1384.57 352,181.22 571.15,242.06 1022.63,217.22 5.43,141.61 21.08,206.13 -28.33,273.68 -55.87,76.37 -37.59,146.04 39.96,175.38 -55.45,-139.86 8.13,-118.67 35.08,-176.94 26.78,-57.96 1.31,-221.72 21.46,-236.99 78.36,-59.39 32.11,-27.47 82.26,-79.36 85.62,19.93 142.98,32.09 162.07,-79.07 52.49,0.43 87.24,-4.41 112.1,-34.83 19.06,-23.33 13.18,-26.96 23.05,-52.27 35.68,-91.54 149.22,-33.34 87.52,-200.37 36.69,-18.41 96.39,-65.7 60.71,-131.05 -29.53,-54.09 -28.34,-1.97 -17.19,-60.62 11.21,-59.02 12.52,-37.74 -23.44,-78.01l266.54 24.72c45.03,116.97 113.44,186.37 140.29,347.15 42.64,255.27 -98.98,495.57 -323.6,600.01 -146.67,68.18 -227.56,67.39 -398.43,77.4 131.42,34.34 312.69,11.21 431.83,-42.59 156.15,-70.52 196.68,-148.26 275.49,-238.34 207,239.95 -164.1,592.14 -244.73,384.84 -10.43,-26.81 -12.53,-74.65 -29.65,-101.8 -12.6,89.39 2.15,117.49 -90.33,140.11 -96.6,23.62 -114.67,-13.81 -152.41,-64.48 -7.5,56.34 25.37,81.95 -82.82,88.15 -80.74,4.63 -99.11,-29.81 -126.17,-79.45 -27.66,47.4 15.31,22.22 -39.16,37.5 -108.88,30.52 -121.14,-56.21 -127.26,-68.51 -10.09,-20.27 -3.03,-11.28 -15.8,-25.63 -12.02,185.38 134.51,129.55 196.03,140.97 28.19,5.22 41.25,20.81 78.09,27.11 70.61,12.06 121.13,-19.37 190.21,-17.6 88.54,2.26 99.23,-21.59 170.04,-33.14 148.67,184.88 503.57,-76.27 342.68,-406.31 -55.3,-113.41 -53.89,-44.47 -27.46,-191.72 54.14,-301.77 -42.9,-343.98 -112.19,-574.24 491.69,-63.61 213.66,-131.29 472.08,-39.78 420.14,148.73 1131.39,59.83 1524.52,-137.92 280.41,-141.06 490.36,-335.65 644.13,-565.41 186.54,-278.73 264.42,-543.37 224.52,-951.71z"/> <path class="fil0" d="M7477.33 5210.43l18.28 -8.07c11.12,-4.4 17.15,-6.13 27.75,-10.4 34.99,-14.07 14.25,-3.04 48.78,-26.3 78.2,-52.67 45.24,-3.22 77.92,-17.49l-31.47 -70.65c-32.31,39 -33.24,52.9 -95.23,64.52 -206.99,38.77 -63.84,-202.66 129.98,-169.84 89.85,15.22 149.38,192.8 -65.51,271.82 -75.64,27.81 -81.45,26.16 -110.51,-33.59zm313.92 -1322.46c-50.62,34.56 -142.97,292.88 -361.59,294.24 -84.79,0.53 -129.2,-14.31 -140.2,-92.35 -37.27,-264.39 293.08,-371.47 541.82,-351.59 -10.78,65.45 -43.37,100.61 -40.03,149.69zm-658.35 -74.08c-2.63,-0.71 -197.31,-71.86 -199.15,-72.79l-1.57 -183.13 264.24 141.51c-13.84,43.58 -44.36,79.58 -63.52,114.41zm97.48 -150.12l-98.54 -48.58 95.29 -165.47c56.64,17.62 95.52,64.01 117.73,104.6 -11.69,16.78 -98.6,98.52 -114.48,109.45zm-453.08 1368.99l29.61 7.38c21.49,-18.12 257.2,-413.23 290.94,-472.58 86.57,-152.35 129.07,-241.24 365.22,-136.79 59.52,26.33 92.51,36.84 109.41,98.79 -147.41,-23.09 -395.58,-48.14 -380.58,136.61 2.19,-2.66 4.66,-10.75 5.53,-8.75 18.06,41.28 -52.24,-85.04 222.19,-104.46 97.42,-6.91 205.15,4.63 229.87,92.51 -105.51,-20.12 -170.06,-26.18 -274.39,12.55 -96.92,35.99 -136.14,60.95 -122.66,175.09l32 -68.79c37,-72.08 388.16,-187.97 403.36,46.31 -160.22,0.46 -383.33,-38.27 -368.56,165.01 25.41,-45.47 11.47,-65.2 61.53,-99.32 73.4,-50.02 354.37,-88.21 340.62,70.02 -72.87,-0.01 -77.24,-41.96 -186.54,-5.16 -263.4,88.67 -141.28,167.2 -57.48,340.9 -113.02,23.53 -227.68,60.68 -329.26,83.35l112.74 3.43c-22.18,51.71 -47.71,64.87 -95.45,90.88 34.06,16.66 30.55,3.13 53.06,12.19 -20.94,273.14 -80.07,354.79 -100.89,484.52 126.73,-140.51 142.81,-529.23 190.19,-581.31 34.9,-38.34 137.86,-45.87 196.55,-61.65 36.25,25.75 30.33,36.64 79.84,59.89 -16.03,-28.83 -24.28,-42.22 -40.4,-63.31 77.55,-60.33 204.88,-53.93 218.34,-201.38 3.84,-42.08 -1.44,-47.81 -8.97,-83.85 -21.56,-103.29 46.96,-53.62 6.31,-167.65 -36.5,-102.32 3.59,-62.67 -50.15,-162.57 -31.97,-59.45 -3.06,-33.24 -25.21,-86.9 -18.97,-46 -23.08,-19.68 -45.31,-54.86 -55.3,-87.46 48.06,-92.35 -332.69,-201.83l5.13 -159.62c110.05,12.78 198.38,100.14 385.38,-121.42 26.78,-31.72 54.59,-85.46 81.67,-114.47 54.7,23.94 99.13,46.27 135.29,84.43 -28.13,51.28 -122.83,128.03 -192.78,166.37 -97.42,53.42 -189.12,47.59 -315.79,49.09 78.76,63.67 256.07,39.71 349.76,-1.91 119.79,-53.21 150.14,-117.6 211.52,-213.55 -41.75,-89.23 -145.54,-84.37 -175.01,-151.98l38.8 -70.14c14.65,-39.05 24.18,-59.02 27.91,-105.89 -174.01,-27.59 -308.66,12.6 -452.96,65.15 19.15,-50.06 53.55,-90.82 56.77,-142.11 -49.37,50.47 -55.27,53.2 -93.67,132.57 -39.06,80.7 -64.39,60.62 -95.43,150.98 -32.24,-15.99 -4.13,1.68 -35.58,-21.88 -13.81,-10.35 -21.8,-19.02 -34.12,-31.03 18.55,-73.17 89.1,-178.19 132.83,-230.89 60.02,-72.3 101.29,-119.75 208.46,-167.82 6.5,24.27 14.81,55.25 21.3,85.92 3.97,18.72 6.06,36.65 10.04,53.52l1.44 -184.46c-76.82,9.85 -158.13,93.58 -227.99,122.92 -26.33,-52.31 -70.49,-114.47 -108.23,-161.09l-42.62 41.59c-37.06,-266.54 -14.15,-476.72 117.41,-670.54 73.89,-108.88 296.2,-321.09 460.33,-360.81 -18.41,-41.33 -5.22,-29.06 -78.96,-79.62 -574.18,-393.8 -1139.01,-257.65 -1710.8,32.13 2.04,1.43 6.07,0.1 7,2.68 4.97,13.91 65.06,-14.57 74.27,-18.75 27.78,-12.59 54.53,-25.56 86.08,-38.47 454.9,-186.09 1028.32,-151.45 1446.69,70.87 -84.05,62.53 -102.52,30.83 -266.2,186.65 -165,157.09 -276.98,370.05 -303.95,619.32 -7.79,71.98 -4.94,148.79 5.41,220.4 10.6,73.31 37.58,126.79 48.3,194.72l-173.78 -78.82 -4.88 234.42c-105.29,2.12 -185.6,21.8 -246.33,76.33 18.72,73.52 64.02,142.17 95.32,199.22 -41.12,55.39 -112.77,77.73 -147.78,136.98 84.77,102.71 217.52,173.04 399.19,187.13 -60.77,127.28 -327.78,296.41 -471.73,361.72 -112.23,50.93 -167.38,72.54 -254.43,156.47 -53.28,51.4 -142.86,166.37 -164.15,250.17 100.33,-86.45 16.53,-161.15 558.85,-440.74 151.38,-78.04 339.38,-171.81 443.2,-304.14 20.33,-25.9 29.77,-48.64 53.45,-70.98 26.02,-24.58 52.39,-29.74 69.48,-62.8 -106.26,40.49 -178.84,74.96 -322.63,36.83 -91.64,-24.3 -204.65,-58.8 -270.88,-113.66 20.65,-35.43 81.79,-67.73 122.97,-97.88 2.35,1.65 5.87,1.65 6.79,5.31 0.44,1.71 99.49,132.45 279.93,140.25 16.3,0.71 57.31,0.84 72.42,-1.54l57.23 -25.49c-142.67,-7.74 -240.61,-24.85 -323.97,-100.83 -61.26,-55.8 -162.37,-171.68 -180.07,-246.92 180.74,-87.26 373.74,14.3 509.66,117.13 74.86,56.62 61.37,59.49 66.61,173.59 -144.92,-24.66 -277.36,-150.54 -392.43,-201.28 53.95,90.95 288.94,221.43 411.53,265.17l-10.77 171.29c-135.85,34.64 -210.87,195.1 -279.38,304.48 -78.17,124.76 -142.54,236.46 -209.91,377.47z"/> <path class="fil0" d="M6246.61 6889.73c-95.29,1 -108.54,-56.31 -123.05,-150.73 -13.38,-87.05 -2.66,-187.43 57.68,-212.77 135.26,-56.8 156.16,259.02 65.37,363.5zm282.79 -82.09c1.13,-17.02 25.41,-213.43 28.38,-225.21 42.59,-169.28 258.02,-18.81 138.91,198.55 -48.53,88.55 -113.97,50.55 -167.29,26.66zm499.61 -227.47c-56.74,124.17 -209.74,97.13 -148.56,-89.92 40.21,-123 232.28,-93.3 148.56,89.92zm-471.73 -504.17c-43.62,-37.53 -11.1,-89.74 -26.27,-112.39l-4.91 130.94c4.03,0.94 18.85,4.19 21.6,5.46 24.52,11.3 13.75,6.6 29.41,20.21l114.99 44.17c-33.61,-51.74 -43.05,-42.52 -84.74,-82.29 7.43,-88.15 36.31,-146.06 91.07,-183.46 224.22,-153.13 372.06,192.94 8.88,322.85 -3.01,2.85 -7,6.16 -9.5,8.09l-39.81 29.93 196.1 -8.77c51.83,5.9 109.08,-5.15 151.6,-20.21 -32.84,-14.82 -95.36,-6.72 -140.61,-7.56l116.54 -140.6c1.13,-1.54 5.15,-2.79 5.99,-6.96 0.85,-4.18 3.96,-4.72 6.16,-6.87 76.67,68.15 43.69,206.66 10.29,299.94 -212.09,87.71 -153.91,127.92 -158.94,286.41 -36.77,33.4 -42.08,33.47 -82.49,51.17 2.41,-86.2 1.32,-171.26 -51.49,-217.3 -88.77,-77.36 -158.12,26.97 -179.03,42.75 -72.83,-148.64 -164.68,-82.83 -235.65,-11.9 -2.93,-1.31 -6.47,-3.84 -8.27,-4.93 -118.7,-71.42 -116.19,-9.78 -190.97,56.98 -33.3,-35.55 -73.95,-116.67 -151.14,-80.74 -70.4,32.77 -43.89,108.13 -72.99,175.97 -127.64,-32.69 -247.62,-244.43 -302.58,-360.72 -18.97,-26.94 -9.13,0.41 -20.37,-48.8 -1.46,-6.4 -0.74,-30.58 -0.74,-38.31 41.59,-34.46 71.92,-24.55 124.52,-24.9 -25.77,-1.78 -45.43,-8.54 -75.01,-16.85 -86.74,-24.38 -44.36,-1.28 -63.78,-33.02 14.94,213.58 38.44,356.51 207.81,503.86 21.88,19.03 42.24,34.09 73.49,49.9 56.4,28.55 59.02,18.4 72.81,56.45 -10.21,8.15 -8.43,7.85 -25,15.6 -14.15,6.6 -20.77,8.31 -37.64,13.46l-186.46 63.62c-2.84,0.97 -7.43,2.65 -9.74,3.46 -2.31,0.79 -6.62,2 -9.74,3.47 38,300.41 89.46,388.31 41.52,746.75 -48.99,366.29 -212.14,521.04 -236.62,593.84l16.72 27.5c18.5,-5.4 43.37,-31.19 64.55,-21.03 48.22,-32.94 94.48,-150.35 117.49,-201.19 141.89,-313.58 114.36,-504.59 107.24,-809.67l18.41 -10.13c147.13,-63.87 485.83,-72.77 659.3,-16.02 43.84,14.34 148.5,71.9 164.65,63.51 -108.63,-56.09 -154.2,-131.45 -374.09,-164.09 -273.96,-40.64 -393.89,30 -497.16,23.41l-25.12 -120c48.65,-48.08 116.6,-74.14 181.87,-102.96 130.25,-57.5 70.68,44.74 209.71,-1.66 -78.82,-30.55 -117.47,-3.54 -141.86,-113.27 -18.53,-83.36 -4.25,-167.93 31.65,-218.61 184.21,-17.74 103.08,203.15 158.84,327.82 47.34,105.83 208.55,120.77 214.68,-128.42 1.84,-74.67 -31.18,-155.66 11.32,-202.06 112.27,-122.58 216.39,100.73 145.25,245.27 -13.72,27.87 -30.49,48.46 -59.3,64.61 -31.68,17.75 -59.56,16.81 -87.39,43.12 160.79,32.94 90.08,-114.33 316.88,71.33 296.88,243.02 429.83,565.02 408.34,988.17l26.18 -76.29c2.43,-30.37 -0.5,-78.57 -0.68,-110.52 18.72,54 0.04,115.73 20.16,150.26 -27.15,-112.1 42.5,-26.44 20.74,-121.3 -15.41,-67.15 -19.53,39.31 -12.94,-62.3 1.81,-27.84 6.4,-49.06 6.35,-83.85l22.77 49.03c-1.06,-93.21 0.18,-28.62 23.03,-47.92 -39.74,-244.65 -159.12,-484.2 -320.04,-642.7 -29.69,-29.24 -56.55,-46.8 -90.17,-71.93 -20,-14.94 -25.97,-18.3 -42.99,-31.62l-39.71 -37.09c40.87,-37.91 45.25,-55.28 90.7,-85.76l100.11 -74.56c70.39,-41.42 167.81,34.14 213.9,-135.22 38.5,-141.45 -39.3,-109.7 -27.71,-210.72 8.22,-71.67 78.79,-235.68 -59.4,-317.6 11.82,-278.43 -280.85,-287.73 -375.57,-121.05 -62.15,109.33 -4.62,157.34 -65.03,166.81z"/> <path class="fil0" d="M3732.25 951.86c-30.31,-187.06 225.11,-211.84 385.12,-210.37 155.32,1.43 418.56,14.4 446.24,163.81 33.78,182.4 -222.08,208.81 -383.46,209.96 -177.78,1.25 -421.05,2.25 -447.9,-163.4zm162.2 -262.27c44.83,-369.18 460.93,-320.75 513.69,17.71 -229.34,-37.59 -280.54,-35.58 -513.69,-17.71zm74.92 -290.16c-35.62,-136.63 98.18,-171.43 169.53,-331.57 73.14,176.04 183.41,165.23 175.23,326.88 -113.17,-17.13 -145.53,-85.29 -344.76,4.69zm-378.59 621.98c48.74,22.63 38.25,37.53 101.39,69.14 181.16,90.7 585.39,75.04 777.21,26.21 42.94,-10.93 88.8,-25.22 129.76,-44.93 49.52,-23.83 39.18,-27.53 80.83,-57.11l17.66 -11.59c2.21,-1.46 6.13,-3.99 9.29,-5.82 8.78,-60.43 24.35,-100.98 -22.15,-151.91 -36.24,-39.68 -101.36,-66.42 -123.6,-88.48 -36.27,-35.97 -39.47,-132.13 -148.72,-262.79 -52.2,-62.45 -8.52,-48.74 -11.99,-138.67 -5.79,-150.12 -194.07,-154.14 -265.01,-355.46 -43.37,227.09 -294.39,154.34 -250.26,425.27 8.27,50.75 6.4,37.66 -21.24,73.4 -123.11,159.23 -66.42,203.15 -155.56,255.26 -169.73,99.24 -119.54,142.48 -117.64,267.48z"/> <path class="fil1 str0" d="M653.95 3810.52c34.3,14.05 24.15,-39.21 28.59,29.83l-1.12 -74.9c-67.33,31 -74.34,1.01 -75.15,0.56 0.79,-96.17 25.41,-12.55 50.12,-74.71 -6.96,-9.91 -3.07,-15.13 -12.44,-21.75 -39.33,-27.77 -18.85,30.77 -85.54,-5.12l77.98 -32.43c1.66,-0.51 5.99,-1.34 8.5,-2.96 -35.22,-51.22 -20.15,-0.78 -37.36,-49.81 40.67,-20.16 -39.69,17.1 25.71,-8.24l36.97 -16.66 -62.68 -24.03c20.87,-3.65 30.03,-4.31 50.5,-9.07l38.55 -12.49c2.07,-0.81 6.19,-2.29 8.82,-4.22l-37.43 -26.34c-135.92,-13.13 -190.07,-123.16 -190.04,-266.98 -175.94,37.39 -322.7,178.54 -342.97,369.15 -21.25,200.05 144.57,385.36 248.02,438.73 40.8,-227.96 184.02,-181.24 270.96,-208.55z"/> <path class="fil0" d="M3134.95 3716.7c-18.91,111.41 -51.99,206.47 73.93,259.95 111.3,47.27 178.34,-10.84 226.52,-95.35l16.05 -25.88c1.37,-2.13 3.81,-6.06 5.99,-8.9 95.79,50.37 85.71,102.14 239.05,82.26 -13.65,-49.53 7.07,-5.84 -75.17,-90.4 -116.44,-119.76 -154.14,-199.74 -256.09,-241.71 -169.32,-69.71 -312.41,82.92 -569.15,-21.03 37,126.72 228.96,141.45 338.88,141.07z"/> <path class="fil0" d="M4584.04 3931c186.07,5.52 132.1,-40.8 245.3,-91.55 52.72,268.01 441.96,150.34 298.66,-122.76 184,-3.93 263.85,-19.33 353.6,-133.64 -100.46,5.31 -124.52,46.47 -276.82,25.9 -230.39,-31.12 -279.96,-90.52 -463.98,132.8 -64.42,78.2 -145.28,136.31 -156.76,189.25z"/> <path class="fil0" d="M957.42 2322.19c-24.85,10.74 2.41,-3.35 -27.58,15.56 -2.38,1.51 -7.21,9.78 -8.91,7.13 -1.76,-2.72 -6.22,4.81 -8.97,7.59 196.02,7.74 291.89,-14.84 482.69,53.45 149.42,53.49 236.9,110.05 335.1,198.88 110.76,100.2 254.27,451.54 529.26,537.46 -108.14,-95.49 -173.75,-162.12 -254.86,-313.69 -67.61,-126.33 -128.85,-254.86 -218.21,-342.16 -195.9,-191.37 -628.79,-250.42 -828.52,-164.22z"/> <path class="fil0" d="M368.94 4165.86c-3.91,-105.24 -4.29,-86.52 -71.74,-141.03 -113.86,-92.01 -210.44,-251.11 -207.74,-420.83 5.68,-356.16 306.19,-401 389.13,-447.52l3.25 -73.84c-131.47,3.91 -263.36,88.4 -332.6,151.87 -278.6,255.42 -145.39,879.15 219.69,931.36z"/> <ellipse class="fil2 str1" cx="5702.04" cy="5969.11" rx="200.63" ry="201.37"/> <ellipse class="fil2 str1" cx="6318.41" cy="6033.13" rx="200.63" ry="201.37"/> <ellipse class="fil2 str1" cx="6849.69" cy="6024.02" rx="200.63" ry="201.37"/> <ellipse class="fil2 str1" cx="6533.4" cy="6037.58" rx="200.63" ry="201.37"/> <ellipse class="fil2 str1" cx="6038.48" cy="6003.8" rx="200.63" ry="201.37"/> <ellipse class="fil2 str1" cx="5938.57" cy="5728.85" rx="200.63" ry="201.37"/> <ellipse class="fil2 str1" cx="6241.85" cy="5735.19" rx="200.63" ry="201.37"/> <ellipse class="fil2 str1" cx="6374.74" cy="5456.31" rx="200.63" ry="201.37"/> <ellipse class="fil2 str1" cx="6651.38" cy="5713.63" rx="200.63" ry="201.37"/> </g> </svg>