<?xml version="1.0" encoding="UTF-8"?>
<svg version="1.0" viewBox="0 0 269.28 251.56" xmlns="http://www.w3.org/2000/svg" xmlns:xlink="http://www.w3.org/1999/xlink">
 <defs>
  <linearGradient id="a">
   <stop offset="0"/>
   <stop stop-color="#020000" offset=".5"/>
   <stop stop-color="#040000" stop-opacity=".60417" offset="1"/>
  </linearGradient>
  <radialGradient id="f" cx="159.36" cy="20.579" r="20.764" gradientTransform="matrix(1 0 0 1.0079 -.66402 -.31395)" gradientUnits="userSpaceOnUse" xlink:href="#a"/>
  <radialGradient id="g" cx="171.59" cy="59.301" r="54.233" gradientTransform="matrix(1 0 0 .48811 -.66402 30.204)" gradientUnits="userSpaceOnUse" xlink:href="#a"/>
  <radialGradient id="h" cx="215.65" cy="137.32" r="54.793" gradientTransform="matrix(1 0 0 .98888 -.66402 1.3753)" gradientUnits="userSpaceOnUse" xlink:href="#a"/>
  <radialGradient id="i" cx="82.173" cy="155.38" r="82.009" gradientTransform="matrix(1 0 0 1.1721 -.66402 -26.886)" gradientUnits="userSpaceOnUse" xlink:href="#a"/>
 </defs>
 <path d="m0 117.71c28.89 20.92 55.1 42.47 60.426 69.06 14.055 56.94 77.364 0.3 76.034-27.89-1.65-36.54-32.38-9.92-38.268 2.24-4.577 9.47-15.708-1.12-20.585-11.29-4.031-8.4-0.581-19.83-0.581-19.83 0.683-6.4 5.614-8.56 10.625-10.63 31.879-18.91 20.269-43.45 12.949-42.827-16.592 1.412-29.186 26.967-43.162 42.827-6.009 6.71-16.211-29.043-30.545-31.871 24.991-2.48 45.781-24.618 68.062-27.889 43.015 0.049 38.595 35.624 24.905 62.42 36.41-16.06 43.15 16.76 43.16 41.17 0 15.98-8.37 77.77-62.09 87.65-29.479 5.42-52.936-20.92-59.429-54.78-2.326-20.29-7.905-25.51-16.268-36.52 3.079 0.07 9.874 10.07 16.268 21.91-7.873-23.29-26.585-42.87-41.501-63.75z" fill="url(#i)"/>
 <path d="m196.05 142.78c-2.36 7.59 2.85 16.91 4.48 23.24 2.49 9.6-0.91 17.1-0.91 17.1-8.45 18.45-27.1-6.71-28.97-14.78-1.87-8.06-0.47-17.2-8.94-22.03-0.03-0.95-0.88-4.97-1.08-5.44 4.32 1.74 8.7 2.56 13.01 6.89 0.31-43.28 26.27-65.471 56.88-64.229 64.96 2.626 41.28 103.53-19.51 107.32 7.82-1.9 14.08-5.11 20.04-8.55-9.95 1.68-37.26 5.79-30.75-1.18 14.55-15.58 42.01-30.51 41.65-49.04s-32.39-32.757-45.9 10.7z" fill="url(#h)"/>
 <path d="m117.19 38.619c6.47 9.554 49.68 47.008 77.47 3.756 3.33-6.442 9.04-9.6 17.37-9.155 4.82 0.624 14.76 0.24 12.21 8.921-15.26 51.941-87.36 63.709-107.05-3.522z" fill="url(#g)"/>
 <path d="m138.44 3.2867c8.38 1.7922 8.47 10.485 11.26 19.251 9.48 29.727 30.16 18.071 29.23 1.526 0.33-12.84-10.77-21.544-35.92-24.064 1.56 1.0584 3.8 1.9462 4.23 3.2867-3.72-1.3787-6.31-0.7753-8.8 0z" fill="url(#f)"/>
</svg>
